<?xml version="1.0" encoding="iso-8859-1"?>
<!-- Generator: Adobe Illustrator 15.1.0, SVG Export Plug-In . SVG Version: 6.00 Build 0)  -->
<!DOCTYPE svg PUBLIC "-//W3C//DTD SVG 1.1//EN" "http://www.w3.org/Graphics/SVG/1.1/DTD/svg11.dtd">
<svg version="1.1" id="Layer_1" xmlns="http://www.w3.org/2000/svg" xmlns:xlink="http://www.w3.org/1999/xlink" x="0px" y="0px"
	 width="1984.25px" height="1417.32px" viewBox="0 0 1984.25 1417.32" style="enable-background:new 0 0 1984.25 1417.32;"
	 xml:space="preserve">
<g>
	<path d="M775.71,739.915c0,35.843-9.303,69.771-61.835,69.771c-30.644,0-53.078-14.228-59.372-45.145l39.126-9.577
		c1.094,9.303,9.85,16.964,19.152,16.964c19.973,0,20.247-22.161,20.247-36.664V611.048h42.682V739.915z"/>
	<path d="M834.534,611.048h131.604v39.399h-88.921v36.115h83.996v39.399h-83.996v39.399h93.846v39.398H834.534V611.048z"/>
	<path d="M1121.541,658.382c-6.84-8.756-20.52-12.859-30.916-12.859c-12.039,0-28.729,5.472-28.729,19.973
		c0,35.296,89.195,12.586,89.195,80.439c0,43.229-34.748,63.751-74.695,63.751c-24.896,0-46.785-7.387-65.117-24.351l30.371-33.38
		c8.754,11.49,22.982,18.33,37.211,18.33c13.953,0,29.549-6.565,29.549-20.247c0-35.567-90.838-16.415-90.838-80.986
		c0-41.314,35.842-62.929,73.873-62.929c21.889,0,42.955,5.746,59.373,20.247L1121.541,658.382z"/>
	<path d="M1299.105,658.382c-6.838-8.756-20.52-12.859-30.916-12.859c-12.039,0-28.729,5.472-28.729,19.973
		c0,35.296,89.195,12.586,89.195,80.439c0,43.229-34.75,63.751-74.695,63.751c-24.898,0-46.785-7.387-65.117-24.351l30.369-33.38
		c8.756,11.49,22.984,18.33,37.211,18.33c13.953,0,29.549-6.565,29.549-20.247c0-35.567-90.836-16.415-90.836-80.986
		c0-41.314,35.842-62.929,73.873-62.929c21.889,0,42.955,5.746,59.371,20.247L1299.105,658.382z"/>
</g>
</svg>
