<?xml version="1.0" encoding="iso-8859-1"?>
<!-- Generator: Adobe Illustrator 15.1.0, SVG Export Plug-In . SVG Version: 6.00 Build 0)  -->
<!DOCTYPE svg PUBLIC "-//W3C//DTD SVG 1.1//EN" "http://www.w3.org/Graphics/SVG/1.1/DTD/svg11.dtd">
<svg version="1.1" id="Layer_1" xmlns="http://www.w3.org/2000/svg" xmlns:xlink="http://www.w3.org/1999/xlink" x="0px" y="0px"
	 width="1984.25px" height="1417.32px" viewBox="0 0 1984.25 1417.32" style="enable-background:new 0 0 1984.25 1417.32;"
	 xml:space="preserve">
<g>
	<path d="M681.483,648.929h26.26v94.94h48.649v24.24h-74.909V648.929z"/>
	<path d="M841.402,645.898c37.202,0,64.304,24.409,64.304,62.621c0,38.212-27.102,62.62-64.304,62.62s-64.304-24.408-64.304-62.62
		C777.099,670.307,804.2,645.898,841.402,645.898z M841.402,746.899c22.389,0,37.034-16.16,37.034-38.38
		c0-22.221-14.645-38.381-37.034-38.381s-37.034,16.16-37.034,38.381C804.369,730.739,819.014,746.899,841.402,746.899z"/>
	<path d="M959.24,672.159h-34.004v-23.23h94.268v23.23H985.5v95.95h-26.26V672.159z"/>
	<path d="M1068.49,672.159h-34.003v-23.23h94.268v23.23h-34.004v95.95h-26.261V672.159z"/>
	<path d="M1154.343,648.929h26.261v119.181h-26.261V648.929z"/>
	<path d="M1218.143,648.929h80.97v24.24h-54.709v22.22h51.679v24.24h-51.679v24.24h57.738v24.24h-83.999V648.929z"/>
</g>
</svg>
