<?xml version="1.0" encoding="iso-8859-1"?>
<!-- Generator: Adobe Illustrator 15.1.0, SVG Export Plug-In . SVG Version: 6.00 Build 0)  -->
<!DOCTYPE svg PUBLIC "-//W3C//DTD SVG 1.1//EN" "http://www.w3.org/Graphics/SVG/1.1/DTD/svg11.dtd">
<svg version="1.1" id="Layer_1" xmlns="http://www.w3.org/2000/svg" xmlns:xlink="http://www.w3.org/1999/xlink" x="0px" y="0px"
	 width="1984.25px" height="1417.32px" viewBox="0 0 1984.25 1417.32" style="enable-background:new 0 0 1984.25 1417.32;"
	 xml:space="preserve">
<g>
	<path d="M788.15,671.108c-6.696-7.992-16.417-12.528-28.945-12.528c-25.488,0-44.281,20.736-44.281,49.249
		c0,28.513,18.792,49.25,43.201,49.25c13.608,0,24.624-6.049,31.536-16.417l28.081,20.952
		c-12.744,18.145-34.345,26.568-55.297,26.568c-47.737,0-82.513-31.32-82.513-80.353s34.776-80.353,82.513-80.353
		c17.064,0,38.665,5.832,51.625,22.464L788.15,671.108z"/>
	<path d="M836.1,631.363h33.697v57.025h65.449v-57.025h33.697v152.931h-33.697v-66.097h-65.449v66.097H836.1V631.363z"/>
	<path d="M1000.041,631.363h59.186c31.32,0,57.673,10.8,57.673,46.441c0,21.384-11.448,38.016-33.049,41.905l38.881,64.585h-40.393
		l-31.969-61.129h-16.632v61.129h-33.697V631.363z M1033.738,694.652h19.872c12.312,0,28.296-0.432,28.296-17.064
		c0-15.336-13.824-17.712-26.136-17.712h-22.032V694.652z"/>
	<path d="M1139.576,631.363h33.697v152.931h-33.697V631.363z"/>
	<path d="M1279.543,668.732c-5.4-6.912-16.2-10.152-24.408-10.152c-9.504,0-22.681,4.32-22.681,15.768
		c0,27.865,70.417,9.936,70.417,63.505c0,34.129-27.432,50.328-58.969,50.328c-19.656,0-36.937-5.832-51.408-19.225l23.977-26.352
		c6.912,9.072,18.144,14.473,29.376,14.473c11.017,0,23.328-5.185,23.328-15.984c0-28.081-71.713-12.961-71.713-63.938
		c0-32.617,28.296-49.681,58.321-49.681c17.279,0,33.912,4.536,46.872,15.984L1279.543,668.732z"/>
</g>
</svg>
