<?xml version="1.0" encoding="iso-8859-1"?>
<!-- Generator: Adobe Illustrator 15.1.0, SVG Export Plug-In . SVG Version: 6.00 Build 0)  -->
<!DOCTYPE svg PUBLIC "-//W3C//DTD SVG 1.1//EN" "http://www.w3.org/Graphics/SVG/1.1/DTD/svg11.dtd">
<svg version="1.1" id="Layer_1" xmlns="http://www.w3.org/2000/svg" xmlns:xlink="http://www.w3.org/1999/xlink" x="0px" y="0px"
	 width="1984.25px" height="1417.32px" viewBox="0 0 1984.25 1417.32" style="enable-background:new 0 0 1984.25 1417.32;"
	 xml:space="preserve">
<g>
	<path d="M787.232,639.527h51.661c24.265,0,50.682,5.088,50.682,35.224c0,15.459-9.588,26.027-23.874,30.526v0.392
		c18.199,2.348,30.332,15.85,30.332,33.853c0,28.96-27.396,38.55-52.052,38.55h-56.748L787.232,639.527L787.232,639.527z
		 M817.758,694.906h22.113c9.393,0,19.177-3.914,19.177-15.068c0-11.545-10.958-14.48-20.547-14.48h-20.743V694.906z
		 M817.758,752.241h27.397c9.588,0,20.351-4.11,20.351-16.243c0-13.109-14.676-15.262-24.657-15.262h-23.091V752.241z"/>
	<path d="M929.882,639.527h94.123v28.179h-63.596v25.831h60.075v28.179h-60.075v28.179h67.118v28.178h-97.646V639.527z"/>
	<path d="M1066.659,639.527h41.485l58.902,96.276h0.392v-96.276h30.527v138.545h-39.921l-60.465-98.625h-0.391v98.625h-30.529
		L1066.659,639.527L1066.659,639.527z"/>
</g>
</svg>
