<?xml version="1.0" encoding="iso-8859-1"?>
<!-- Generator: Adobe Illustrator 15.1.0, SVG Export Plug-In . SVG Version: 6.00 Build 0)  -->
<!DOCTYPE svg PUBLIC "-//W3C//DTD SVG 1.1//EN" "http://www.w3.org/Graphics/SVG/1.1/DTD/svg11.dtd">
<svg version="1.1" id="Layer_1" xmlns="http://www.w3.org/2000/svg" xmlns:xlink="http://www.w3.org/1999/xlink" x="0px" y="0px"
	 width="1984.25px" height="1417.32px" viewBox="0 0 1984.25 1417.32" style="enable-background:new 0 0 1984.25 1417.32;"
	 xml:space="preserve">
<g>
	<path d="M779.707,649.585h39.1c38.098,0,70.012,16.208,70.012,59.485c0,38.264-31.248,58.817-66.503,58.817h-42.609V649.585z
		 M805.773,743.826h13.535c24.229,0,42.442-9.19,42.442-36.092c0-23.226-18.547-34.088-40.604-34.088h-15.373V743.826z"/>
	<path d="M976.54,646.577c36.927,0,63.832,24.229,63.832,62.16c0,37.93-26.903,62.159-63.832,62.159
		c-36.928,0-63.83-24.229-63.83-62.159C912.709,670.806,939.612,646.577,976.54,646.577z M976.54,746.834
		c22.224,0,36.761-16.041,36.761-38.098c0-22.057-14.537-38.098-36.761-38.098c-22.224,0-36.761,16.041-36.761,38.098
		C939.779,730.793,954.316,746.834,976.54,746.834z"/>
	<path d="M1070.609,649.585h39.435l27.235,77.197h0.336l27.404-77.197h39.266v118.302h-26.066v-90.732h-0.334l-31.08,90.732h-19.885
		l-29.909-90.732h-0.333v90.732h-26.068V649.585L1070.609,649.585z"/>
</g>
</svg>
