<?xml version="1.0" encoding="iso-8859-1"?>
<!-- Generator: Adobe Illustrator 15.1.0, SVG Export Plug-In . SVG Version: 6.00 Build 0)  -->
<!DOCTYPE svg PUBLIC "-//W3C//DTD SVG 1.1//EN" "http://www.w3.org/Graphics/SVG/1.1/DTD/svg11.dtd">
<svg version="1.1" id="Layer_1" xmlns="http://www.w3.org/2000/svg" xmlns:xlink="http://www.w3.org/1999/xlink" x="0px" y="0px"
	 width="1984.25px" height="1417.32px" viewBox="0 0 1984.25 1417.32" style="enable-background:new 0 0 1984.25 1417.32;"
	 xml:space="preserve">
<g>
	<path d="M690.379,647.33h25.299v122.628h-25.299V647.33z"/>
	<path d="M807.624,677.294c-4.055-5.542-12.163-8.14-18.325-8.14c-7.136,0-17.028,3.464-17.028,12.644
		c0,22.343,52.867,7.967,52.867,50.921c0,27.367-20.596,40.357-44.271,40.357c-14.758,0-27.73-4.678-38.597-15.416l18.001-21.131
		c5.189,7.274,13.622,11.605,22.056,11.605c8.27,0,17.514-4.157,17.514-12.818c0-22.516-53.84-10.393-53.84-51.268
		c0-26.154,21.244-39.836,43.785-39.836c12.974,0,25.461,3.637,35.19,12.817L807.624,677.294z"/>
	<path d="M893.893,647.33h20.92l49.947,122.628h-28.541l-9.893-25.98H881.73l-9.568,25.98H844.27L893.893,647.33z M903.623,683.01
		l-13.946,38.104h28.055L903.623,683.01z"/>
	<path d="M988.435,647.33h42.812c20.108,0,42.002,4.503,42.002,31.177c0,13.684-7.946,23.036-19.785,27.02v0.347
		c15.082,2.079,25.137,14.03,25.137,29.964c0,25.634-22.704,34.121-43.137,34.121h-47.028V647.33z M1013.731,696.347h18.325
		c7.785,0,15.893-3.464,15.893-13.337c0-10.219-9.081-12.817-17.027-12.817h-17.19V696.347z M1013.731,747.094h22.704
		c7.945,0,16.865-3.636,16.865-14.375c0-11.605-12.162-13.51-20.433-13.51h-19.137V747.094z"/>
	<path d="M1106.65,647.33h78.004v24.941h-52.704v22.863h49.784v24.942h-49.784v24.939h55.621v24.942h-80.921V647.33z"/>
	<path d="M1220.976,647.33h25.298v97.686h46.866v24.942h-72.164V647.33z"/>
</g>
</svg>
