<?xml version="1.0" encoding="iso-8859-1"?>
<!-- Generator: Adobe Illustrator 15.1.0, SVG Export Plug-In . SVG Version: 6.00 Build 0)  -->
<!DOCTYPE svg PUBLIC "-//W3C//DTD SVG 1.1//EN" "http://www.w3.org/Graphics/SVG/1.1/DTD/svg11.dtd">
<svg version="1.1" id="Layer_1" xmlns="http://www.w3.org/2000/svg" xmlns:xlink="http://www.w3.org/1999/xlink" x="0px" y="0px"
	 width="1984.25px" height="1417.32px" viewBox="0 0 1984.25 1417.32" style="enable-background:new 0 0 1984.25 1417.32;"
	 xml:space="preserve">
<g>
	<path d="M769.178,647.318h39.913l27.568,78.136h0.338l27.737-78.136h39.744v119.74h-26.383v-91.835h-0.339L846.3,767.059h-20.126
		L795.9,675.224h-0.34v91.835h-26.383V647.318z"/>
	<path d="M1042.48,720.889c0,28.243-17.252,49.215-50.4,49.215c-33.318,0-50.569-20.972-50.569-49.215v-73.57h26.384v72.555
		c0,14.714,10.148,25.876,24.186,25.876c13.869,0,24.016-11.162,24.016-25.876v-72.555h26.385V720.889L1042.48,720.889z"/>
	<path d="M1079.515,647.318h39.914l27.568,78.136h0.338l27.736-78.136h39.745v119.74h-26.385v-91.835h-0.338l-31.457,91.835h-20.127
		l-30.271-91.835h-0.338v91.835h-26.387L1079.515,647.318L1079.515,647.318z"/>
</g>
</svg>
